<svg width="359" height="216" viewBox="0 0 359 216" fill="none" xmlns="http://www.w3.org/2000/svg">
<rect width="72.2087" height="75.7696" rx="30" transform="matrix(0.949623 -0.313395 0.299916 0.953966 103 22.6299)" fill="#1171F9"/>
<path d="M120.955 42.4121C120.221 39.892 121.66 37.2263 124.17 36.4581C126.68 35.6898 129.31 37.1099 130.045 39.63L137.256 64.3592C137.99 66.8793 136.551 69.545 134.041 70.3132C131.531 71.0815 128.901 69.6614 128.166 67.1413L120.955 42.4121Z" fill="white"/>
<rect width="9.50593" height="29.3875" rx="4.75297" transform="matrix(0.956213 -0.292672 0.27992 0.960023 132.958 39.3271)" fill="white"/>
<rect width="9.50593" height="21.7015" rx="4.75297" transform="matrix(0.956213 -0.292672 0.27992 0.960023 146.966 43.0771)" fill="white"/>
<rect width="9.50593" height="23.9621" rx="4.75297" transform="matrix(0.956213 -0.292672 0.27992 0.960023 158.188 37.2778)" fill="white"/>
<rect width="9.6399" height="12.7346" rx="4.81995" transform="matrix(0.956213 -0.292672 0.27992 0.960023 172.954 44.4326)" fill="white"/>
<rect width="72.2049" height="75.7734" rx="30" transform="matrix(0.950767 0.309907 -0.296548 0.955018 184.35 4.2583)" fill="black"/>
<path d="M35.4663 206.642V198.47H36.7263V206.59C36.7263 208.795 37.9338 209.985 40.1213 209.985C42.2563 209.985 43.4638 208.76 43.4638 206.59V198.47H44.7238V206.642C44.7238 209.477 42.9738 211.21 40.1213 211.21C37.2163 211.21 35.4663 209.495 35.4663 206.642ZM48.6325 211H47.425V202.53H48.475L48.615 203.737C49.035 202.845 49.98 202.302 51.17 202.302C52.5 202.302 53.4975 203.002 53.9 204.105C54.285 203.002 55.3175 202.302 56.6825 202.302C58.52 202.302 59.7275 203.492 59.7275 205.452V211H58.555V205.697C58.555 204.245 57.75 203.387 56.455 203.387C55.0375 203.387 54.1975 204.455 54.1975 205.767V211H53.0075V205.68C53.0075 204.245 52.185 203.405 50.9075 203.405C49.49 203.405 48.6325 204.455 48.6325 205.75V211ZM109.954 200.202C109.447 200.202 109.044 199.8 109.044 199.31C109.044 198.82 109.447 198.4 109.954 198.4C110.427 198.4 110.847 198.82 110.847 199.31C110.847 199.8 110.427 200.202 109.954 200.202ZM107.084 214.71L107.312 213.608C107.662 213.695 107.872 213.73 108.134 213.73C108.974 213.73 109.342 213.24 109.342 212.208V202.53H110.549V212.278C110.549 213.888 109.709 214.868 108.222 214.868C107.767 214.868 107.522 214.833 107.084 214.71ZM116.62 211.21C114.135 211.21 112.472 209.425 112.472 206.765C112.472 204.122 114.117 202.302 116.532 202.302C118.825 202.302 120.382 203.93 120.382 206.327V206.922H113.645C113.732 208.987 114.817 210.177 116.637 210.177C118.02 210.177 118.912 209.582 119.227 208.462H120.382C119.927 210.247 118.615 211.21 116.62 211.21ZM116.532 203.335C114.94 203.335 113.89 204.385 113.68 206.047H119.175C119.175 204.42 118.125 203.335 116.532 203.335ZM122.908 200.202C122.418 200.202 122.015 199.8 122.015 199.31C122.015 198.82 122.418 198.4 122.908 198.4C123.398 198.4 123.818 198.82 123.818 199.31C123.818 199.8 123.398 200.202 122.908 200.202ZM122.313 211V202.53H123.52V211H122.313ZM127.981 211H126.791V203.545H125.093V202.53H126.791V199.852H127.981V202.53H129.678V203.545H127.981V211ZM130.57 206.765C130.57 204.175 132.39 202.302 134.875 202.302C137.36 202.302 139.18 204.175 139.18 206.765C139.18 209.337 137.36 211.21 134.875 211.21C132.39 211.21 130.57 209.337 130.57 206.765ZM131.795 206.747C131.795 208.742 133.055 210.125 134.875 210.125C136.678 210.125 137.955 208.742 137.955 206.747C137.955 204.787 136.678 203.387 134.875 203.387C133.055 203.387 131.795 204.787 131.795 206.747ZM149.29 211.21C146.823 211.21 145.37 209.32 145.37 206.782C145.37 204.227 146.823 202.302 149.343 202.302C150.743 202.302 151.863 202.915 152.458 204.14V198.242H153.665V211H152.615L152.493 209.267C151.898 210.58 150.708 211.21 149.29 211.21ZM149.5 210.107C151.355 210.107 152.44 208.707 152.44 206.747C152.44 204.805 151.355 203.387 149.5 203.387C147.663 203.387 146.595 204.805 146.595 206.747C146.595 208.707 147.663 210.107 149.5 210.107ZM159.737 211.21C157.252 211.21 155.59 209.425 155.59 206.765C155.59 204.122 157.235 202.302 159.65 202.302C161.942 202.302 163.5 203.93 163.5 206.327V206.922H156.762C156.85 208.987 157.935 210.177 159.755 210.177C161.137 210.177 162.03 209.582 162.345 208.462H163.5C163.045 210.247 161.732 211.21 159.737 211.21ZM159.65 203.335C158.057 203.335 157.007 204.385 156.797 206.047H162.292C162.292 204.42 161.242 203.335 159.65 203.335ZM171.491 211H170.284V202.53H171.334L171.474 203.737C171.894 202.845 172.839 202.302 174.029 202.302C175.359 202.302 176.356 203.002 176.759 204.105C177.144 203.002 178.176 202.302 179.541 202.302C181.379 202.302 182.586 203.492 182.586 205.452V211H181.414V205.697C181.414 204.245 180.609 203.387 179.314 203.387C177.896 203.387 177.056 204.455 177.056 205.767V211H175.866V205.68C175.866 204.245 175.044 203.405 173.766 203.405C172.349 203.405 171.491 204.455 171.491 205.75V211ZM184.42 206.765C184.42 204.175 186.24 202.302 188.725 202.302C191.21 202.302 193.03 204.175 193.03 206.765C193.03 209.337 191.21 211.21 188.725 211.21C186.24 211.21 184.42 209.337 184.42 206.765ZM185.645 206.747C185.645 208.742 186.905 210.125 188.725 210.125C190.528 210.125 191.805 208.742 191.805 206.747C191.805 204.787 190.528 203.387 188.725 203.387C186.905 203.387 185.645 204.787 185.645 206.747ZM196.169 211H194.962V202.53H196.012L196.187 204C196.747 202.915 197.867 202.302 199.092 202.302C201.419 202.302 202.382 203.685 202.382 205.82V211H201.174V206.082C201.174 204.105 200.282 203.405 198.882 203.405C197.149 203.405 196.169 204.665 196.169 206.572V211ZM205.383 200.202C204.893 200.202 204.491 199.8 204.491 199.31C204.491 198.82 204.893 198.4 205.383 198.4C205.873 198.4 206.293 198.82 206.293 199.31C206.293 199.8 205.873 200.202 205.383 200.202ZM204.788 211V202.53H205.996V211H204.788ZM210.456 211H209.266V203.545H207.569V202.53H209.266V199.852H210.456V202.53H212.154V203.545H210.456V211ZM213.046 206.765C213.046 204.175 214.866 202.302 217.351 202.302C219.836 202.302 221.656 204.175 221.656 206.765C221.656 209.337 219.836 211.21 217.351 211.21C214.866 211.21 213.046 209.337 213.046 206.765ZM214.271 206.747C214.271 208.742 215.531 210.125 217.351 210.125C219.153 210.125 220.431 208.742 220.431 206.747C220.431 204.787 219.153 203.387 217.351 203.387C215.531 203.387 214.271 204.787 214.271 206.747ZM228.015 202.425V203.51H227.35C225.792 203.51 224.795 204.56 224.795 206.17V211H223.587V202.53H224.725L224.812 203.842C225.145 202.932 226.037 202.337 227.227 202.337C227.49 202.337 227.717 202.355 228.015 202.425ZM231.711 211.21C229.908 211.21 228.841 210.195 228.841 208.707C228.841 207.15 230.031 206.17 232.008 206.012L234.808 205.785V205.505C234.808 203.842 233.811 203.317 232.568 203.317C231.098 203.317 230.223 203.982 230.223 205.12H229.121C229.121 203.405 230.521 202.302 232.603 202.302C234.563 202.302 235.998 203.282 235.998 205.522V211H234.983L234.826 209.512C234.301 210.58 233.146 211.21 231.711 211.21ZM231.991 210.23C233.776 210.23 234.808 208.987 234.808 207.15V206.695L232.306 206.887C230.713 207.027 230.066 207.727 230.066 208.672C230.066 209.705 230.836 210.23 231.991 210.23ZM242.849 202.425V203.51H242.184C240.626 203.51 239.629 204.56 239.629 206.17V211H238.421V202.53H239.559L239.646 203.842C239.979 202.932 240.871 202.337 242.061 202.337C242.324 202.337 242.551 202.355 242.849 202.425ZM249.307 214.693V202.53H250.357L250.48 204.245C251.075 202.932 252.265 202.302 253.682 202.302C256.132 202.302 257.602 204.175 257.602 206.73C257.602 209.285 256.185 211.21 253.682 211.21C252.247 211.21 251.11 210.597 250.515 209.372V214.693H249.307ZM250.532 206.765C250.532 208.707 251.617 210.125 253.472 210.125C255.31 210.125 256.377 208.707 256.377 206.765C256.377 204.805 255.31 203.405 253.472 203.405C251.617 203.405 250.532 204.805 250.532 206.765ZM263.955 202.425V203.51H263.29C261.732 203.51 260.735 204.56 260.735 206.17V211H259.527V202.53H260.665L260.752 203.842C261.085 202.932 261.977 202.337 263.167 202.337C263.43 202.337 263.657 202.355 263.955 202.425ZM264.64 206.765C264.64 204.175 266.46 202.302 268.945 202.302C271.43 202.302 273.25 204.175 273.25 206.765C273.25 209.337 271.43 211.21 268.945 211.21C266.46 211.21 264.64 209.337 264.64 206.765ZM265.865 206.747C265.865 208.742 267.125 210.125 268.945 210.125C270.748 210.125 272.025 208.742 272.025 206.747C272.025 204.787 270.748 203.387 268.945 203.387C267.125 203.387 265.865 204.787 265.865 206.747ZM274.586 206.782C274.586 204.122 276.214 202.302 278.681 202.302C280.641 202.302 282.076 203.44 282.409 205.19H281.201C280.886 204.017 279.871 203.37 278.699 203.37C276.984 203.37 275.776 204.682 275.776 206.765C275.776 208.777 276.896 210.125 278.611 210.125C279.871 210.125 280.886 209.425 281.219 208.34H282.444C282.041 210.072 280.536 211.21 278.611 211.21C276.214 211.21 274.586 209.442 274.586 206.782ZM287.826 211.21C285.341 211.21 283.678 209.425 283.678 206.765C283.678 204.122 285.323 202.302 287.738 202.302C290.031 202.302 291.588 203.93 291.588 206.327V206.922H284.851C284.938 208.987 286.023 210.177 287.843 210.177C289.226 210.177 290.118 209.582 290.433 208.462H291.588C291.133 210.247 289.821 211.21 287.826 211.21ZM287.738 203.335C286.146 203.335 285.096 204.385 284.886 206.047H290.381C290.381 204.42 289.331 203.335 287.738 203.335ZM292.801 208.62H293.956C293.956 209.6 294.691 210.212 295.881 210.212C297.194 210.212 297.964 209.652 297.964 208.742C297.964 208.042 297.614 207.64 296.616 207.395L295.164 207.027C293.694 206.66 292.976 205.89 292.976 204.735C292.976 203.247 294.219 202.302 296.039 202.302C297.824 202.302 298.979 203.282 299.031 204.857H297.859C297.824 203.877 297.141 203.3 296.004 203.3C294.814 203.3 294.149 203.807 294.149 204.717C294.149 205.365 294.604 205.82 295.531 206.047L296.984 206.415C298.454 206.782 299.119 207.465 299.119 208.69C299.119 210.212 297.824 211.21 295.899 211.21C293.991 211.21 292.801 210.195 292.801 208.62ZM300.389 208.62H301.544C301.544 209.6 302.279 210.212 303.469 210.212C304.782 210.212 305.552 209.652 305.552 208.742C305.552 208.042 305.202 207.64 304.204 207.395L302.752 207.027C301.282 206.66 300.564 205.89 300.564 204.735C300.564 203.247 301.807 202.302 303.627 202.302C305.412 202.302 306.567 203.282 306.619 204.857H305.447C305.412 203.877 304.729 203.3 303.592 203.3C302.402 203.3 301.737 203.807 301.737 204.717C301.737 205.365 302.192 205.82 303.119 206.047L304.572 206.415C306.042 206.782 306.707 207.465 306.707 208.69C306.707 210.212 305.412 211.21 303.487 211.21C301.579 211.21 300.389 210.195 300.389 208.62ZM308.1 206.765C308.1 204.175 309.92 202.302 312.405 202.302C314.89 202.302 316.71 204.175 316.71 206.765C316.71 209.337 314.89 211.21 312.405 211.21C309.92 211.21 308.1 209.337 308.1 206.765ZM309.325 206.747C309.325 208.742 310.585 210.125 312.405 210.125C314.207 210.125 315.485 208.742 315.485 206.747C315.485 204.787 314.207 203.387 312.405 203.387C310.585 203.387 309.325 204.787 309.325 206.747ZM317.923 208.62H319.078C319.078 209.6 319.813 210.212 321.003 210.212C322.316 210.212 323.086 209.652 323.086 208.742C323.086 208.042 322.736 207.64 321.738 207.395L320.286 207.027C318.816 206.66 318.098 205.89 318.098 204.735C318.098 203.247 319.341 202.302 321.161 202.302C322.946 202.302 324.101 203.282 324.153 204.857H322.981C322.946 203.877 322.263 203.3 321.126 203.3C319.936 203.3 319.271 203.807 319.271 204.717C319.271 205.365 319.726 205.82 320.653 206.047L322.106 206.415C323.576 206.782 324.241 207.465 324.241 208.69C324.241 210.212 322.946 211.21 321.021 211.21C319.113 211.21 317.923 210.195 317.923 208.62Z" fill="black"/>
<path d="M68.2175 211H67.01V202.53H68.06L68.235 204C68.795 202.915 69.915 202.302 71.14 202.302C73.4675 202.302 74.43 203.685 74.43 205.82V211H73.2225V206.082C73.2225 204.105 72.33 203.405 70.93 203.405C69.1975 203.405 68.2175 204.665 68.2175 206.572V211ZM76.2417 206.765C76.2417 204.175 78.0617 202.302 80.5467 202.302C83.0317 202.302 84.8517 204.175 84.8517 206.765C84.8517 209.337 83.0317 211.21 80.5467 211.21C78.0617 211.21 76.2417 209.337 76.2417 206.765ZM77.4667 206.747C77.4667 208.742 78.7267 210.125 80.5467 210.125C82.3492 210.125 83.6267 208.742 83.6267 206.747C83.6267 204.787 82.3492 203.387 80.5467 203.387C78.7267 203.387 77.4667 204.787 77.4667 206.747ZM88.7695 211L85.3045 202.53H86.5995L88.787 207.99C89.0145 208.602 89.242 209.18 89.3995 209.74C89.557 209.162 89.7845 208.602 90.0295 207.99L92.252 202.53H93.4945L89.977 211H88.7695ZM93.9467 206.765C93.9467 204.175 95.7667 202.302 98.2517 202.302C100.737 202.302 102.557 204.175 102.557 206.765C102.557 209.337 100.737 211.21 98.2517 211.21C95.7667 211.21 93.9467 209.337 93.9467 206.765ZM95.1717 206.747C95.1717 208.742 96.4317 210.125 98.2517 210.125C100.054 210.125 101.332 208.742 101.332 206.747C101.332 204.787 100.054 203.387 98.2517 203.387C96.4317 203.387 95.1717 204.787 95.1717 206.747Z" fill="#1171F9"/>
<path d="M213.645 61.7591C205.455 59.8755 200.222 51.5059 202.13 42.9542C204.038 34.4025 212.313 29.1398 220.503 31.0234C228.693 32.9071 233.926 41.2766 232.018 49.8283C230.11 58.3801 221.835 63.6427 213.645 61.7591Z" stroke="white" stroke-width="6"/>
<rect x="0.705477" y="0.098598" width="4.90368" height="1.27659" transform="matrix(0.798001 -0.597121 0.612952 0.794317 197.166 59.7521)" fill="white" stroke="white"/>
<rect x="0.705477" y="0.098598" width="20.6286" height="4.3219" rx="2.16095" transform="matrix(0.798001 -0.597121 0.612952 0.794317 180.599 70.2213)" fill="white" stroke="white"/>
<path d="M31.28 117.28H36.08V110.368C36.08 104.096 39.6 101.792 43.44 101.792C44.464 101.792 45.68 101.856 46.576 101.984V104.544H43.952C40.112 104.544 39.024 106.464 39.024 110.368V117.28H46.256V119.84H39.024V148H36.08V119.84H31.28V117.28ZM49.4975 132.64C49.4975 123.36 55.9615 116.512 64.7295 116.512C73.4975 116.512 79.9615 123.36 79.9615 132.64C79.9615 141.92 73.4975 148.768 64.7295 148.768C55.9615 148.768 49.4975 141.92 49.4975 132.64ZM52.5055 132.64C52.5055 140.512 57.5615 146.08 64.7295 146.08C71.8975 146.08 76.9535 140.512 76.9535 132.64C76.9535 124.768 71.8975 119.2 64.7295 119.2C57.5615 119.2 52.5055 124.768 52.5055 132.64ZM85.06 132.768C85.06 123.04 90.82 116.512 99.652 116.512C106.244 116.512 111.172 120.416 112.58 126.24H109.572C108.292 121.696 104.196 119.136 99.652 119.136C92.804 119.136 87.94 124.384 87.94 132.704C87.94 140.64 92.42 146.08 99.268 146.08C104.196 146.08 108.292 143.264 109.7 139.104H112.708C111.044 144.928 105.796 148.768 99.268 148.768C90.82 148.768 85.06 142.368 85.06 132.768ZM117.498 132.64C117.498 123.36 123.962 116.512 132.73 116.512C141.498 116.512 147.962 123.36 147.962 132.64C147.962 141.92 141.498 148.768 132.73 148.768C123.962 148.768 117.498 141.92 117.498 132.64ZM120.506 132.64C120.506 140.512 125.562 146.08 132.73 146.08C139.898 146.08 144.954 140.512 144.954 132.64C144.954 124.768 139.898 119.2 132.73 119.2C125.562 119.2 120.506 124.768 120.506 132.64Z" fill="#1171F9"/>
<path d="M160.75 135.1C158.3 135.1 156.35 133.15 156.35 130.7C156.35 128.25 158.3 126.35 160.75 126.35C163.15 126.35 165.1 128.25 165.1 130.7C165.1 133.15 163.15 135.1 160.75 135.1ZM151.3 176.2L152.55 169.4C153.3 169.65 153.7 169.7 154.45 169.7C156.35 169.7 156.9 168.65 156.9 166.45V139H164.6V167.45C164.6 173.05 161.2 176.8 155.2 176.8C154.1 176.8 153.1 176.75 151.3 176.2ZM186.977 139H194.677V164H187.427L186.927 161.2C185.377 163.25 182.277 164.65 179.277 164.65C173.577 164.65 170.077 160.85 170.077 154.7V139H177.777V151.9C177.777 156 179.177 157.8 182.327 157.8C185.627 157.8 186.977 156.1 186.977 152V139ZM217.655 139V146.25H215.205C210.805 146.25 208.155 148.2 208.155 153.15V164H200.455V139.05H207.705L208.105 142.75C209.155 140.3 211.355 138.65 214.705 138.65C215.605 138.65 216.605 138.75 217.655 139ZM233.748 127.65L228.198 135.95H222.648L226.848 127.65H233.748ZM221.548 164V139H229.248V164H221.548ZM245.525 164.65C238.325 164.65 233.675 159.55 233.675 151.65C233.675 143.7 238.425 138.2 246.025 138.2C249.125 138.2 252.075 139.45 253.525 141.3V126.3H261.225V164H253.975L253.575 160.8C252.225 163.1 249.125 164.65 245.525 164.65ZM247.375 157.6C250.975 157.6 253.475 155.1 253.475 151.35C253.475 147.6 250.975 145.1 247.375 145.1C243.725 145.1 241.425 147.65 241.425 151.35C241.425 155.05 243.725 157.6 247.375 157.6ZM270.807 135.1C268.357 135.1 266.407 133.15 266.407 130.7C266.407 128.25 268.357 126.35 270.807 126.35C273.207 126.35 275.157 128.25 275.157 130.7C275.157 133.15 273.207 135.1 270.807 135.1ZM267.007 164V139H274.707V164H267.007ZM279.134 151.4C279.134 143.7 284.434 138.2 291.934 138.2C299.334 138.2 304.234 142.25 304.734 148.8H296.984C296.434 146.3 294.884 145.1 292.234 145.1C288.984 145.1 286.884 147.55 286.884 151.4C286.884 155.4 288.834 157.75 292.134 157.75C294.834 157.75 296.484 156.5 296.984 154.05H304.734C304.234 160.35 299.134 164.65 292.134 164.65C284.234 164.65 279.134 159.4 279.134 151.4ZM307.601 151.45C307.601 143.55 313.401 138.25 321.401 138.25C329.351 138.25 335.151 143.55 335.151 151.45C335.151 159.35 329.351 164.6 321.401 164.6C313.401 164.6 307.601 159.35 307.601 151.45ZM315.351 151.4C315.351 155.2 317.801 157.7 321.401 157.7C324.951 157.7 327.401 155.2 327.401 151.4C327.401 147.65 324.951 145.15 321.401 145.15C317.801 145.15 315.351 147.65 315.351 151.4Z" fill="black"/>
</svg>
