<svg width="137" height="44" viewBox="0 0 137 44" fill="none" xmlns="http://www.w3.org/2000/svg">
<path d="M88.5703 34.74H91.3435C93.4035 34.74 94.8101 36.3748 94.8101 38.827C94.8101 41.2792 93.4035 42.914 91.3435 42.914H88.5703V34.74ZM91.2924 41.6294C92.7085 41.6294 93.6254 40.5142 93.6254 38.827C93.6254 37.1398 92.7085 36.0235 91.2924 36.0235H89.7472V41.6294H91.2924Z" fill="#255897"/>
<path d="M97.8545 34.74H99.034V42.914H97.8545V34.74Z" fill="#255897"/>
<path d="M106.876 38.7335H107.992V41.9908C107.329 42.68 106.403 43.0301 105.505 43.0301C103.536 43.0301 102.084 41.2671 102.084 38.8272C102.084 36.3872 103.536 34.623 105.523 34.623C106.585 34.623 107.474 35.078 108.073 35.9545L107.329 36.8879C107.103 36.5848 106.831 36.3453 106.529 36.1846C106.228 36.0239 105.904 35.9456 105.577 35.9545C104.225 35.9545 103.272 37.1332 103.272 38.8272C103.272 40.4854 104.225 41.6998 105.569 41.6998C106.026 41.7116 106.477 41.5665 106.876 41.2794V38.7335Z" fill="#255897"/>
<path d="M111.332 34.74H112.512V42.914H111.332V34.74Z" fill="#255897"/>
<path d="M117.306 36.0235H115.201V34.74H120.592V36.0235H118.486V42.914H117.306V36.0235Z" fill="#255897"/>
<path d="M127.068 41.0217H123.893L123.266 42.9174H122.053L124.913 34.7434H126.074L128.942 42.9174H127.706L127.068 41.0217ZM126.678 39.8307L125.479 36.2622L124.291 39.8307H126.678Z" fill="#255897"/>
<path d="M131.534 34.74H132.714V41.6294H136.035V42.914H131.534V34.74Z" fill="#255897"/>
<path d="M24.6348 18.3685C24.2492 16.785 23.4406 15.4881 22.2316 14.5134C21.0704 13.5522 19.5122 13.0637 17.6021 13.0637H4.83837V11.0854H1.7627V13.0693V15.0487H4.83837V19.0019H10.2115V34.2794H14.8046V19.4814H15.7371C17.9037 19.4814 18.7747 19.7758 19.1291 20.0234C20.1075 20.6924 20.5833 22.1087 20.5833 24.349V34.2839H25.1765V23.6431C25.1765 21.6158 24.9945 19.8405 24.6348 18.3685Z" fill="url(#paint0_linear_230_1053)"/>
<path d="M4.83855 19.0019H1.76288V15.0442H0.224609V34.2838H4.81515L4.83855 19.0019Z" fill="url(#paint1_linear_230_1053)"/>
<path d="M1.76288 9.10718H0.224609V11.0866H1.76288V9.10718Z" fill="#034EA2"/>
<path d="M72.9155 4.87964H69.8398V8.8373H72.9155V4.87964Z" fill="#034EA2"/>
<path d="M69.84 8.8374H68.3018V10.8168H69.84V8.8374Z" fill="#034EA2"/>
<path d="M120.621 23.4726C120.291 23.3904 119.973 23.2433 119.679 23.0365C119.419 22.8615 119.232 22.5604 119.101 22.1143C118.947 21.5902 118.869 20.8754 118.869 19.99V5.65474C118.862 4.31704 118.454 3.03453 117.729 2.0751C117.005 1.11567 116.02 0.553531 114.981 0.506104L114.928 0.506104V19.99C114.928 23.0009 115.482 25.1799 116.574 26.4768C117.667 27.7737 119.425 28.4104 121.947 28.4104H122.499V23.5841H121.947C121.504 23.5942 121.06 23.5569 120.621 23.4726Z" fill="url(#paint2_linear_230_1053)"/>
<path d="M133.783 22.5001L133.403 22.8804C132.665 23.6164 131.685 23.9899 130.492 23.9899C129.165 23.9899 128.125 23.4513 127.311 22.344C127.046 21.9834 126.82 21.5782 126.639 21.1396L126.591 21.0281H128.946C135.11 21.0281 136.404 16.9567 136.404 13.541C136.404 10.7531 135.382 7.36867 130.511 7.11107C127.918 6.99955 125.826 8.01434 124.311 10.1398C122.813 12.2396 122.053 15.0097 122.053 18.3718C122.053 21.424 122.833 23.9554 124.361 25.898C125.89 27.8405 127.953 28.8208 130.489 28.8208C132.587 28.8208 134.433 28.0022 135.977 26.3897L136.456 25.8902L133.783 22.5001ZM131.76 15.8003C131.454 16.1114 130.755 16.4805 129.167 16.4805H126.191L126.206 16.3857C126.364 15.3397 126.721 14.3605 127.246 13.5365C127.995 12.3478 129.006 11.7702 130.335 11.7702C130.976 11.7702 131.499 11.9408 131.888 12.2787C132.217 12.5641 132.371 12.9767 132.371 13.5778C132.369 14.6417 132.164 15.3899 131.76 15.8003Z" fill="url(#paint3_linear_230_1053)"/>
<path d="M47.0821 8.52734L40.5052 16.9891L40.4706 16.8776C39.7383 14.4521 37.8707 13.1429 34.9241 12.9868C32.3242 12.8753 30.2374 13.8934 28.7243 16.0156C27.2259 18.1154 26.4658 20.8854 26.4658 24.2476C26.4658 27.2997 27.2458 29.8322 28.7745 31.7737C30.3033 33.7152 32.3667 34.6965 34.9025 34.6965C36.9997 34.6965 38.8465 33.878 40.3908 32.2655L40.8692 31.7659L38.1939 28.3803L37.8135 28.7606C37.0751 29.4966 36.0958 29.8702 34.9025 29.8702C33.5757 29.8702 32.5357 29.3315 31.7228 28.2242C31.4571 27.8637 31.2306 27.4585 31.0494 27.0198L31.0018 26.9083H33.3573C39.5216 26.9083 40.8155 22.8369 40.8155 19.4212C40.8159 19.0482 40.7959 18.6755 40.7557 18.3061L40.7462 18.2157H43.1407V25.8679C43.1407 28.842 43.7932 31.021 45.0819 32.3469C46.3325 33.636 48.2529 34.2884 50.7887 34.2884H51.339V29.462H50.7887C50.3048 29.4709 49.821 29.4336 49.3414 29.3505C48.9369 29.262 48.5427 29.1084 48.168 28.8933C47.8228 28.6984 47.5453 28.3472 47.388 27.9064C47.1861 27.389 47.0838 26.7031 47.0838 25.8701V18.2113H51.3416V13.3849H47.0821V8.52734ZM36.1712 21.6783C35.8653 21.9894 35.1677 22.3585 33.5783 22.3585H30.6031L30.6178 22.2637C30.775 21.2175 31.1324 20.2382 31.6578 19.4145C32.4057 18.2258 33.4162 17.6481 34.7465 17.6481C35.3878 17.6481 35.9104 17.8188 36.2995 18.1566C36.6288 18.4421 36.7822 18.8547 36.7822 19.4558C36.7813 20.5196 36.5759 21.2679 36.1712 21.6783Z" fill="url(#paint4_linear_230_1053)"/>
<path d="M59.6213 13.385C58.7937 13.385 58.1247 13.4129 57.6333 13.4698C57.0174 13.5589 56.413 13.7496 55.835 14.0374C55.1488 14.3541 54.5286 14.8705 54.0229 15.5462C53.0046 16.8843 52.5098 19.1615 52.5098 22.4958V34.284H56.3871V22.4958C56.3871 20.1673 56.6791 19.3432 56.8525 19.0611C57.0148 18.808 57.2231 18.6103 57.4591 18.4857C57.6708 18.3681 57.8943 18.2889 58.1229 18.2504C58.3439 18.2248 58.6654 18.2114 59.052 18.2114H61.2454L64.3133 13.385H59.6213Z" fill="url(#paint5_linear_230_1053)"/>
<path d="M112.991 13.7318C112.164 11.1425 110.584 9.0705 108.588 7.95649C107.567 7.38736 106.466 7.0976 105.354 7.10563C103.001 7.10563 101.012 8.17506 99.4404 10.2816C97.8709 12.3323 97.0754 14.9161 97.0754 17.9616C97.0684 19.4084 97.2803 20.8431 97.6993 22.1858C98.1005 23.4718 98.6915 24.6458 99.4395 25.6427C100.21 26.6557 101.131 27.4605 102.146 28.0099C103.162 28.5593 104.253 28.8423 105.354 28.8423C106.456 28.8423 107.547 28.5593 108.562 28.0099C109.578 27.4605 110.498 26.6557 111.269 25.6427C112.017 24.6457 112.608 23.4718 113.009 22.1858C113.428 20.8433 113.639 19.409 113.632 17.9627C113.639 16.5116 113.421 15.0733 112.991 13.7318ZM105.354 23.9912C104.03 23.9912 103.001 23.4548 102.211 22.3508C101.407 21.2357 101.016 19.7982 101.016 17.9627C101.016 16.1272 101.407 14.6909 102.211 13.5735C103.015 12.4561 104.031 11.9331 105.354 11.9331C106.697 11.9331 107.729 12.4751 108.51 13.588C109.305 14.721 109.693 16.1528 109.693 17.9627C109.693 19.7726 109.305 21.2033 108.51 22.3363C107.729 23.4481 106.697 23.9901 105.354 23.9901V23.9912Z" fill="url(#paint6_linear_230_1053)"/>
<path d="M93.8394 10.2814C93.0852 9.29878 92.1922 8.5104 91.2083 7.95854C90.184 7.39566 89.0818 7.10547 87.968 7.10547C86.8542 7.10547 85.7519 7.39566 84.7277 7.95854C83.7372 8.49829 82.8395 9.28475 82.0861 10.2727C81.3328 11.2606 80.7388 12.4304 80.3382 13.7149C79.9089 15.0633 79.6909 16.5076 79.6969 17.9648V18.674L74.2146 14.5067C72.6487 13.3042 70.8228 12.7849 69.0089 13.0262C67.1951 13.2676 65.4903 14.2566 64.1488 15.8459C62.8073 17.4352 61.9007 19.5397 61.5642 21.8459C61.2277 24.152 61.4793 26.5363 62.2815 28.6435C63.0837 30.7507 64.3936 32.468 66.0159 33.5395C67.6382 34.6109 69.4862 34.9792 71.2844 34.5894C73.0825 34.1996 74.7347 33.0727 75.9947 31.3764C77.2547 29.6802 78.055 27.5055 78.2765 25.1764V25.1329L74.5881 22.3216L74.6149 22.4744C74.6958 22.9216 74.7374 23.3791 74.7389 23.8382C74.7389 25.0687 74.4553 26.2716 73.924 27.2947C73.3928 28.3178 72.6376 29.1152 71.7542 29.5861C70.8707 30.057 69.8986 30.1802 68.9607 29.9401C68.0228 29.7001 67.1613 29.1075 66.4851 28.2374C65.8089 27.3674 65.3485 26.2588 65.1619 25.052C64.9753 23.8451 65.0711 22.5942 65.437 21.4574C65.803 20.3206 66.4227 19.3489 67.2178 18.6653C68.0129 17.9817 68.9477 17.6168 69.9039 17.6168C70.7662 17.6168 71.4639 17.8399 72.0428 18.2859L79.6943 24.1092V34.6886H83.6348V17.9614C83.6265 17.111 83.7326 16.2651 83.9486 15.4613C84.1386 14.7621 84.4373 14.1201 84.8264 13.5744C85.2068 13.0517 85.6691 12.6389 86.1827 12.3634C86.751 12.0679 87.3594 11.9212 87.9723 11.9318C88.5941 11.9179 89.2114 12.0698 89.7853 12.3779C90.2953 12.6603 90.7531 13.0783 91.1286 13.6045C91.511 14.1574 91.8055 14.8015 91.9952 15.5003C92.4135 17.095 92.4135 18.8223 91.9952 20.417C91.8045 21.1188 91.5053 21.7637 91.1156 22.3127C90.7258 22.8428 90.2532 23.2608 89.729 23.5394C89.1418 23.8464 88.5125 23.9981 87.8787 23.9854C86.8509 23.9854 85.9522 23.7022 85.1315 23.1179L85.0535 23.0621V28.1438L85.0882 28.1594C86.0126 28.5935 86.9892 28.8147 87.9732 28.8129C89.0747 28.823 90.1665 28.5467 91.183 28.0005C92.1995 27.4544 93.1199 26.6497 93.8888 25.6347C94.6362 24.6373 95.2268 23.4635 95.6281 22.1778C96.0468 20.835 96.2587 19.4004 96.2521 17.9536C96.265 15.087 95.3979 12.3298 93.8394 10.2814Z" fill="url(#paint7_linear_230_1053)"/>
<defs>
<linearGradient id="paint0_linear_230_1053" x1="13.4241" y1="37.3438" x2="13.4241" y2="7.09099" gradientUnits="userSpaceOnUse">
<stop stop-color="#00A1E4"/>
<stop offset="0.07" stop-color="#018CD4"/>
<stop offset="0.16" stop-color="#0276C1"/>
<stop offset="0.27" stop-color="#0264B3"/>
<stop offset="0.41" stop-color="#0357A9"/>
<stop offset="0.58" stop-color="#0350A4"/>
<stop offset="1" stop-color="#034EA2"/>
</linearGradient>
<linearGradient id="paint1_linear_230_1053" x1="2.53158" y1="36.8219" x2="2.53158" y2="11.73" gradientUnits="userSpaceOnUse">
<stop stop-color="#00A1E4"/>
<stop offset="0.07" stop-color="#018CD4"/>
<stop offset="0.16" stop-color="#0276C1"/>
<stop offset="0.27" stop-color="#0264B3"/>
<stop offset="0.41" stop-color="#0357A9"/>
<stop offset="0.58" stop-color="#0350A4"/>
<stop offset="1" stop-color="#034EA2"/>
</linearGradient>
<linearGradient id="paint2_linear_230_1053" x1="118.711" y1="32.0904" x2="118.711" y2="-4.3013" gradientUnits="userSpaceOnUse">
<stop stop-color="#00A1E4"/>
<stop offset="0.07" stop-color="#018CD4"/>
<stop offset="0.16" stop-color="#0276C1"/>
<stop offset="0.27" stop-color="#0264B3"/>
<stop offset="0.41" stop-color="#0357A9"/>
<stop offset="0.58" stop-color="#0350A4"/>
<stop offset="1" stop-color="#034EA2"/>
</linearGradient>
<linearGradient id="paint3_linear_230_1053" x1="129.257" y1="31.68" x2="129.257" y2="3.35748" gradientUnits="userSpaceOnUse">
<stop stop-color="#00A1E4"/>
<stop offset="0.07" stop-color="#018CD4"/>
<stop offset="0.16" stop-color="#0276C1"/>
<stop offset="0.27" stop-color="#0264B3"/>
<stop offset="0.41" stop-color="#0357A9"/>
<stop offset="0.58" stop-color="#0350A4"/>
<stop offset="1" stop-color="#034EA2"/>
</linearGradient>
<linearGradient id="paint4_linear_230_1053" x1="38.9037" y1="38.1446" x2="38.9037" y2="4.02103" gradientUnits="userSpaceOnUse">
<stop stop-color="#00A1E4"/>
<stop offset="0.07" stop-color="#018CD4"/>
<stop offset="0.16" stop-color="#0276C1"/>
<stop offset="0.27" stop-color="#0264B3"/>
<stop offset="0.41" stop-color="#0357A9"/>
<stop offset="0.58" stop-color="#0350A4"/>
<stop offset="1" stop-color="#034EA2"/>
</linearGradient>
<linearGradient id="paint5_linear_230_1053" x1="58.4124" y1="37.0406" x2="58.4124" y2="9.78643" gradientUnits="userSpaceOnUse">
<stop stop-color="#00A1E4"/>
<stop offset="0.07" stop-color="#018CD4"/>
<stop offset="0.16" stop-color="#0276C1"/>
<stop offset="0.27" stop-color="#0264B3"/>
<stop offset="0.41" stop-color="#0357A9"/>
<stop offset="0.58" stop-color="#0350A4"/>
<stop offset="1" stop-color="#034EA2"/>
</linearGradient>
<linearGradient id="paint6_linear_230_1053" x1="105.354" y1="31.679" x2="105.354" y2="3.36654" gradientUnits="userSpaceOnUse">
<stop stop-color="#00A1E4"/>
<stop offset="0.07" stop-color="#018CD4"/>
<stop offset="0.16" stop-color="#0276C1"/>
<stop offset="0.27" stop-color="#0264B3"/>
<stop offset="0.41" stop-color="#0357A9"/>
<stop offset="0.58" stop-color="#0350A4"/>
<stop offset="1" stop-color="#034EA2"/>
</linearGradient>
<linearGradient id="paint7_linear_230_1053" x1="78.8623" y1="38.3285" x2="78.8623" y2="2.35158" gradientUnits="userSpaceOnUse">
<stop stop-color="#00A1E4"/>
<stop offset="0.07" stop-color="#018CD4"/>
<stop offset="0.16" stop-color="#0276C1"/>
<stop offset="0.27" stop-color="#0264B3"/>
<stop offset="0.41" stop-color="#0357A9"/>
<stop offset="0.58" stop-color="#0350A4"/>
<stop offset="1" stop-color="#034EA2"/>
</linearGradient>
</defs>
</svg>
