<svg width="613" height="237" viewBox="0 0 613 237" fill="none" xmlns="http://www.w3.org/2000/svg">
<path d="M2.56 74.56H12.16V60.736C12.16 48.192 19.2 43.584 26.88 43.584C28.928 43.584 31.36 43.712 33.152 43.968V49.088H27.904C20.224 49.088 18.048 52.928 18.048 60.736V74.56H32.512V79.68H18.048V136H12.16V79.68H2.56V74.56ZM38.995 105.28C38.995 86.72 51.923 73.024 69.459 73.024C86.995 73.024 99.923 86.72 99.923 105.28C99.923 123.84 86.995 137.536 69.459 137.536C51.923 137.536 38.995 123.84 38.995 105.28ZM45.011 105.28C45.011 121.024 55.123 132.16 69.459 132.16C83.795 132.16 93.907 121.024 93.907 105.28C93.907 89.536 83.795 78.4 69.459 78.4C55.123 78.4 45.011 89.536 45.011 105.28ZM110.12 105.536C110.12 86.08 121.64 73.024 139.304 73.024C152.488 73.024 162.344 80.832 165.16 92.48H159.144C156.584 83.392 148.392 78.272 139.304 78.272C125.608 78.272 115.88 88.768 115.88 105.408C115.88 121.28 124.84 132.16 138.536 132.16C148.392 132.16 156.584 126.528 159.4 118.208H165.416C162.088 129.856 151.592 137.536 138.536 137.536C121.64 137.536 110.12 124.736 110.12 105.536ZM174.995 105.28C174.995 86.72 187.923 73.024 205.459 73.024C222.995 73.024 235.923 86.72 235.923 105.28C235.923 123.84 222.995 137.536 205.459 137.536C187.923 137.536 174.995 123.84 174.995 105.28ZM181.011 105.28C181.011 121.024 191.123 132.16 205.459 132.16C219.795 132.16 229.907 121.024 229.907 105.28C229.907 89.536 219.795 78.4 205.459 78.4C191.123 78.4 181.011 89.536 181.011 105.28Z" fill="#1171F9"/>
<path d="M253.5 123.2C248.6 123.2 244.7 119.3 244.7 114.4C244.7 109.5 248.6 105.7 253.5 105.7C258.3 105.7 262.2 109.5 262.2 114.4C262.2 119.3 258.3 123.2 253.5 123.2ZM234.6 205.4L237.1 191.8C238.6 192.3 239.4 192.4 240.9 192.4C244.7 192.4 245.8 190.3 245.8 185.9V131H261.2V187.9C261.2 199.1 254.4 206.6 242.4 206.6C240.2 206.6 238.2 206.5 234.6 205.4ZM305.953 131H321.353V181H306.853L305.853 175.4C302.753 179.5 296.553 182.3 290.553 182.3C279.153 182.3 272.153 174.7 272.153 162.4V131H287.553V156.8C287.553 165 290.353 168.6 296.653 168.6C303.253 168.6 305.953 165.2 305.953 157V131ZM367.309 131V145.5H362.409C353.609 145.5 348.309 149.4 348.309 159.3V181H332.909V131.1H347.409L348.209 138.5C350.309 133.6 354.709 130.3 361.409 130.3C363.209 130.3 365.209 130.5 367.309 131ZM399.497 108.3L388.397 124.9H377.297L385.697 108.3H399.497ZM375.097 181V131H390.497V181H375.097ZM423.05 182.3C408.65 182.3 399.35 172.1 399.35 156.3C399.35 140.4 408.85 129.4 424.05 129.4C430.25 129.4 436.15 131.9 439.05 135.6V105.6H454.45V181H439.95L439.15 174.6C436.45 179.2 430.25 182.3 423.05 182.3ZM426.75 168.2C433.95 168.2 438.95 163.2 438.95 155.7C438.95 148.2 433.95 143.2 426.75 143.2C419.45 143.2 414.85 148.3 414.85 155.7C414.85 163.1 419.45 168.2 426.75 168.2ZM473.615 123.2C468.715 123.2 464.815 119.3 464.815 114.4C464.815 109.5 468.715 105.7 473.615 105.7C478.415 105.7 482.315 109.5 482.315 114.4C482.315 119.3 478.415 123.2 473.615 123.2ZM466.015 181V131H481.415V181H466.015ZM490.268 155.8C490.268 140.4 500.868 129.4 515.868 129.4C530.668 129.4 540.468 137.5 541.468 150.6H525.968C524.868 145.6 521.768 143.2 516.468 143.2C509.968 143.2 505.768 148.1 505.768 155.8C505.768 163.8 509.668 168.5 516.268 168.5C521.668 168.5 524.968 166 525.968 161.1H541.468C540.468 173.7 530.268 182.3 516.268 182.3C500.468 182.3 490.268 171.8 490.268 155.8ZM547.202 155.9C547.202 140.1 558.802 129.5 574.802 129.5C590.702 129.5 602.302 140.1 602.302 155.9C602.302 171.7 590.702 182.2 574.802 182.2C558.802 182.2 547.202 171.7 547.202 155.9ZM562.702 155.8C562.702 163.4 567.602 168.4 574.802 168.4C581.902 168.4 586.802 163.4 586.802 155.8C586.802 148.3 581.902 143.3 574.802 143.3C567.602 143.3 562.702 148.3 562.702 155.8Z" fill="white"/>
</svg>
