<svg width="318" height="97" viewBox="0 0 318 97" fill="none" xmlns="http://www.w3.org/2000/svg">
<path d="M1.28 37.28H6.08V30.368C6.08 24.096 9.6 21.792 13.44 21.792C14.464 21.792 15.68 21.856 16.576 21.984V24.544H13.952C10.112 24.544 9.024 26.464 9.024 30.368V37.28H16.256V39.84H9.024V68H6.08V39.84H1.28V37.28ZM19.4975 52.64C19.4975 43.36 25.9615 36.512 34.7295 36.512C43.4975 36.512 49.9615 43.36 49.9615 52.64C49.9615 61.92 43.4975 68.768 34.7295 68.768C25.9615 68.768 19.4975 61.92 19.4975 52.64ZM22.5055 52.64C22.5055 60.512 27.5615 66.08 34.7295 66.08C41.8975 66.08 46.9535 60.512 46.9535 52.64C46.9535 44.768 41.8975 39.2 34.7295 39.2C27.5615 39.2 22.5055 44.768 22.5055 52.64ZM55.06 52.768C55.06 43.04 60.82 36.512 69.652 36.512C76.244 36.512 81.172 40.416 82.58 46.24H79.572C78.292 41.696 74.196 39.136 69.652 39.136C62.804 39.136 57.94 44.384 57.94 52.704C57.94 60.64 62.42 66.08 69.268 66.08C74.196 66.08 78.292 63.264 79.7 59.104H82.708C81.044 64.928 75.796 68.768 69.268 68.768C60.82 68.768 55.06 62.368 55.06 52.768ZM87.4975 52.64C87.4975 43.36 93.9615 36.512 102.73 36.512C111.498 36.512 117.962 43.36 117.962 52.64C117.962 61.92 111.498 68.768 102.73 68.768C93.9615 68.768 87.4975 61.92 87.4975 52.64ZM90.5055 52.64C90.5055 60.512 95.5615 66.08 102.73 66.08C109.898 66.08 114.954 60.512 114.954 52.64C114.954 44.768 109.898 39.2 102.73 39.2C95.5615 39.2 90.5055 44.768 90.5055 52.64Z" fill="#1171F9"/>
<path d="M130.75 55.1C128.3 55.1 126.35 53.15 126.35 50.7C126.35 48.25 128.3 46.35 130.75 46.35C133.15 46.35 135.1 48.25 135.1 50.7C135.1 53.15 133.15 55.1 130.75 55.1ZM121.3 96.2L122.55 89.4C123.3 89.65 123.7 89.7 124.45 89.7C126.35 89.7 126.9 88.65 126.9 86.45V59H134.6V87.45C134.6 93.05 131.2 96.8 125.2 96.8C124.1 96.8 123.1 96.75 121.3 96.2ZM156.977 59H164.677V84H157.427L156.927 81.2C155.377 83.25 152.277 84.65 149.277 84.65C143.577 84.65 140.077 80.85 140.077 74.7V59H147.777V71.9C147.777 76 149.177 77.8 152.327 77.8C155.627 77.8 156.977 76.1 156.977 72V59ZM187.655 59V66.25H185.205C180.805 66.25 178.155 68.2 178.155 73.15V84H170.455V59.05H177.705L178.105 62.75C179.155 60.3 181.355 58.65 184.705 58.65C185.605 58.65 186.605 58.75 187.655 59ZM203.748 47.65L198.198 55.95H192.648L196.848 47.65H203.748ZM191.548 84V59H199.248V84H191.548ZM215.525 84.65C208.325 84.65 203.675 79.55 203.675 71.65C203.675 63.7 208.425 58.2 216.025 58.2C219.125 58.2 222.075 59.45 223.525 61.3V46.3H231.225V84H223.975L223.575 80.8C222.225 83.1 219.125 84.65 215.525 84.65ZM217.375 77.6C220.975 77.6 223.475 75.1 223.475 71.35C223.475 67.6 220.975 65.1 217.375 65.1C213.725 65.1 211.425 67.65 211.425 71.35C211.425 75.05 213.725 77.6 217.375 77.6ZM240.807 55.1C238.357 55.1 236.407 53.15 236.407 50.7C236.407 48.25 238.357 46.35 240.807 46.35C243.207 46.35 245.157 48.25 245.157 50.7C245.157 53.15 243.207 55.1 240.807 55.1ZM237.007 84V59H244.707V84H237.007ZM249.134 71.4C249.134 63.7 254.434 58.2 261.934 58.2C269.334 58.2 274.234 62.25 274.734 68.8H266.984C266.434 66.3 264.884 65.1 262.234 65.1C258.984 65.1 256.884 67.55 256.884 71.4C256.884 75.4 258.834 77.75 262.134 77.75C264.834 77.75 266.484 76.5 266.984 74.05H274.734C274.234 80.35 269.134 84.65 262.134 84.65C254.234 84.65 249.134 79.4 249.134 71.4ZM277.601 71.45C277.601 63.55 283.401 58.25 291.401 58.25C299.351 58.25 305.151 63.55 305.151 71.45C305.151 79.35 299.351 84.6 291.401 84.6C283.401 84.6 277.601 79.35 277.601 71.45ZM285.351 71.4C285.351 75.2 287.801 77.7 291.401 77.7C294.951 77.7 297.401 75.2 297.401 71.4C297.401 67.65 294.951 65.15 291.401 65.15C287.801 65.15 285.351 67.65 285.351 71.4Z" fill="black"/>
</svg>
