<svg width="150" height="99" viewBox="0 0 150 99" fill="none" xmlns="http://www.w3.org/2000/svg">
<rect width="72.2087" height="75.7696" rx="30" transform="matrix(0.949623 -0.313395 0.299916 0.953966 0 22.6299)" fill="#1171F9"/>
<path d="M17.9554 42.4121C17.2206 39.892 18.6598 37.2263 21.1698 36.4581C23.6799 35.6898 26.3103 37.1099 27.0451 39.63L34.2556 64.3592C34.9904 66.8793 33.5512 69.545 31.0412 70.3132C28.5311 71.0815 25.9007 69.6614 25.1659 67.1413L17.9554 42.4121Z" fill="white"/>
<rect width="9.50593" height="29.3875" rx="4.75297" transform="matrix(0.956213 -0.292672 0.27992 0.960023 29.958 39.3269)" fill="white"/>
<rect width="9.50593" height="21.7015" rx="4.75297" transform="matrix(0.956213 -0.292672 0.27992 0.960023 43.9658 43.0769)" fill="white"/>
<rect width="9.50593" height="23.9621" rx="4.75297" transform="matrix(0.956213 -0.292672 0.27992 0.960023 55.1885 37.2776)" fill="white"/>
<rect width="9.6399" height="12.7346" rx="4.81995" transform="matrix(0.956213 -0.292672 0.27992 0.960023 69.9541 44.4324)" fill="white"/>
<rect width="72.2049" height="75.7734" rx="30" transform="matrix(0.950767 0.309907 -0.296548 0.955018 81.3496 4.25854)" fill="black"/>
<path d="M110.645 61.7593C102.455 59.8757 97.222 51.5061 99.1301 42.9544C101.038 34.4027 109.313 29.14 117.503 31.0237C125.693 32.9073 130.926 41.2769 129.018 49.8286C127.11 58.3803 118.835 63.643 110.645 61.7593Z" stroke="white" stroke-width="6"/>
<rect x="0.705477" y="0.098598" width="4.90368" height="1.27659" transform="matrix(0.798001 -0.597121 0.612952 0.794317 94.1661 59.7523)" fill="white" stroke="white"/>
<rect x="0.705477" y="0.098598" width="20.6286" height="4.3219" rx="2.16095" transform="matrix(0.798001 -0.597121 0.612952 0.794317 77.5987 70.2216)" fill="white" stroke="white"/>
</svg>
