<svg width="613" height="331" viewBox="0 0 613 331" fill="none" xmlns="http://www.w3.org/2000/svg">
<g filter="url(#filter0_d_66_37)">
<rect x="203.629" y="32.2086" width="103" height="106" rx="29.5" transform="rotate(-17.8542 203.629 32.2086)" fill="white" stroke="#1171F9"/>
<path d="M359.458 89.219C346.827 86.3837 338.927 73.854 341.812 61.2327C344.697 48.6114 357.275 40.6789 369.906 43.5142C382.536 46.3495 390.437 58.8791 387.551 71.5005C384.666 84.1218 372.088 92.0543 359.458 89.219Z" stroke="white" stroke-width="6"/>
<rect x="0.714067" y="0.0960063" width="7.4056" height="2.25438" transform="matrix(0.809122 -0.59093 0.619012 0.782942 335.9 85.0129)" fill="white" stroke="white"/>
<rect x="0.714067" y="0.0960063" width="29.7946" height="6.60765" rx="3.30383" transform="matrix(0.809122 -0.59093 0.619012 0.782942 311.982 99.7643)" fill="white" stroke="white"/>
<path d="M223.095 61.5602C221.936 57.9604 223.914 54.1025 227.514 52.9433V52.9433C231.114 51.7841 234.972 53.7625 236.131 57.3623L247.194 91.7158C248.353 95.3155 246.375 99.1735 242.775 100.333V100.333C239.175 101.492 235.317 99.5135 234.158 95.9137L223.095 61.5602Z" fill="#07289F"/>
<rect x="240.284" y="56.7151" width="13.6952" height="41.4883" rx="6.8476" transform="rotate(-17.85 240.284 56.7151)" fill="#1171F9"/>
<rect x="260.613" y="61.5684" width="13.6952" height="30.6376" rx="6.8476" transform="rotate(-17.85 260.613 61.5684)" fill="#21A4FF"/>
<rect x="276.639" y="53.0547" width="13.6952" height="33.829" rx="6.8476" transform="rotate(-17.85 276.639 53.0547)" fill="#56DDFE"/>
<rect x="298.164" y="62.6809" width="13.8882" height="17.9783" rx="6.94411" transform="rotate(-17.85 298.164 62.6809)" fill="#C0E6EF"/>
<rect x="320.764" y="6.62805" width="103" height="106" rx="29.5" transform="rotate(17.6481 320.764 6.62805)" fill="white" stroke="#21A4FF"/>
<path d="M361.458 87.219C348.827 84.3837 340.927 71.854 343.812 59.2327C346.697 46.6114 359.275 38.6789 371.906 41.5142C384.536 44.3495 392.437 56.8791 389.551 69.5005C386.666 82.1218 374.088 90.0543 361.458 87.219Z" stroke="#1171F9" stroke-width="6"/>
<rect x="0.714067" y="0.0960063" width="7.4056" height="2.25438" transform="matrix(0.809122 -0.59093 0.619012 0.782942 337.9 83.0129)" fill="white" stroke="#1171F9"/>
<rect x="0.714067" y="0.0960063" width="29.7946" height="6.60765" rx="3.30383" transform="matrix(0.809122 -0.59093 0.619012 0.782942 313.982 97.7643)" fill="white" stroke="#1171F9"/>
</g>
<path d="M2.56 168.56H12.16V154.736C12.16 142.192 19.2 137.584 26.88 137.584C28.928 137.584 31.36 137.712 33.152 137.968V143.088H27.904C20.224 143.088 18.048 146.928 18.048 154.736V168.56H32.512V173.68H18.048V230H12.16V173.68H2.56V168.56ZM38.995 199.28C38.995 180.72 51.923 167.024 69.459 167.024C86.995 167.024 99.923 180.72 99.923 199.28C99.923 217.84 86.995 231.536 69.459 231.536C51.923 231.536 38.995 217.84 38.995 199.28ZM45.011 199.28C45.011 215.024 55.123 226.16 69.459 226.16C83.795 226.16 93.907 215.024 93.907 199.28C93.907 183.536 83.795 172.4 69.459 172.4C55.123 172.4 45.011 183.536 45.011 199.28ZM110.12 199.536C110.12 180.08 121.64 167.024 139.304 167.024C152.488 167.024 162.344 174.832 165.16 186.48H159.144C156.584 177.392 148.392 172.272 139.304 172.272C125.608 172.272 115.88 182.768 115.88 199.408C115.88 215.28 124.84 226.16 138.536 226.16C148.392 226.16 156.584 220.528 159.4 212.208H165.416C162.088 223.856 151.592 231.536 138.536 231.536C121.64 231.536 110.12 218.736 110.12 199.536ZM174.995 199.28C174.995 180.72 187.923 167.024 205.459 167.024C222.995 167.024 235.923 180.72 235.923 199.28C235.923 217.84 222.995 231.536 205.459 231.536C187.923 231.536 174.995 217.84 174.995 199.28ZM181.011 199.28C181.011 215.024 191.123 226.16 205.459 226.16C219.795 226.16 229.907 215.024 229.907 199.28C229.907 183.536 219.795 172.4 205.459 172.4C191.123 172.4 181.011 183.536 181.011 199.28Z" fill="#1171F9"/>
<path d="M253.5 217.2C248.6 217.2 244.7 213.3 244.7 208.4C244.7 203.5 248.6 199.7 253.5 199.7C258.3 199.7 262.2 203.5 262.2 208.4C262.2 213.3 258.3 217.2 253.5 217.2ZM234.6 299.4L237.1 285.8C238.6 286.3 239.4 286.4 240.9 286.4C244.7 286.4 245.8 284.3 245.8 279.9V225H261.2V281.9C261.2 293.1 254.4 300.6 242.4 300.6C240.2 300.6 238.2 300.5 234.6 299.4ZM305.953 225H321.353V275H306.853L305.853 269.4C302.753 273.5 296.553 276.3 290.553 276.3C279.153 276.3 272.153 268.7 272.153 256.4V225H287.553V250.8C287.553 259 290.353 262.6 296.653 262.6C303.253 262.6 305.953 259.2 305.953 251V225ZM367.309 225V239.5H362.409C353.609 239.5 348.309 243.4 348.309 253.3V275H332.909V225.1H347.409L348.209 232.5C350.309 227.6 354.709 224.3 361.409 224.3C363.209 224.3 365.209 224.5 367.309 225ZM399.497 202.3L388.397 218.9H377.297L385.697 202.3H399.497ZM375.097 275V225H390.497V275H375.097ZM423.05 276.3C408.65 276.3 399.35 266.1 399.35 250.3C399.35 234.4 408.85 223.4 424.05 223.4C430.25 223.4 436.15 225.9 439.05 229.6V199.6H454.45V275H439.95L439.15 268.6C436.45 273.2 430.25 276.3 423.05 276.3ZM426.75 262.2C433.95 262.2 438.95 257.2 438.95 249.7C438.95 242.2 433.95 237.2 426.75 237.2C419.45 237.2 414.85 242.3 414.85 249.7C414.85 257.1 419.45 262.2 426.75 262.2ZM473.615 217.2C468.715 217.2 464.815 213.3 464.815 208.4C464.815 203.5 468.715 199.7 473.615 199.7C478.415 199.7 482.315 203.5 482.315 208.4C482.315 213.3 478.415 217.2 473.615 217.2ZM466.015 275V225H481.415V275H466.015ZM490.268 249.8C490.268 234.4 500.868 223.4 515.868 223.4C530.668 223.4 540.468 231.5 541.468 244.6H525.968C524.868 239.6 521.768 237.2 516.468 237.2C509.968 237.2 505.768 242.1 505.768 249.8C505.768 257.8 509.668 262.5 516.268 262.5C521.668 262.5 524.968 260 525.968 255.1H541.468C540.468 267.7 530.268 276.3 516.268 276.3C500.468 276.3 490.268 265.8 490.268 249.8ZM547.202 249.9C547.202 234.1 558.802 223.5 574.802 223.5C590.702 223.5 602.302 234.1 602.302 249.9C602.302 265.7 590.702 276.2 574.802 276.2C558.802 276.2 547.202 265.7 547.202 249.9ZM562.702 249.8C562.702 257.4 567.602 262.4 574.802 262.4C581.902 262.4 586.802 257.4 586.802 249.8C586.802 242.3 581.902 237.3 574.802 237.3C567.602 237.3 562.702 242.3 562.702 249.8Z" fill="white"/>
<defs>
<filter id="filter0_d_66_37" x="206.745" y="7.74487" width="209.124" height="132.074" filterUnits="userSpaceOnUse" color-interpolation-filters="sRGB">
<feFlood flood-opacity="0" result="BackgroundImageFix"/>
<feColorMatrix in="SourceAlpha" type="matrix" values="0 0 0 0 0 0 0 0 0 0 0 0 0 0 0 0 0 0 127 0" result="hardAlpha"/>
<feOffset dy="4"/>
<feGaussianBlur stdDeviation="2"/>
<feComposite in2="hardAlpha" operator="out"/>
<feColorMatrix type="matrix" values="0 0 0 0 0 0 0 0 0 0 0 0 0 0 0 0 0 0 0.25 0"/>
<feBlend mode="normal" in2="BackgroundImageFix" result="effect1_dropShadow_66_37"/>
<feBlend mode="normal" in="SourceGraphic" in2="effect1_dropShadow_66_37" result="shape"/>
</filter>
</defs>
</svg>
