<svg width="318" height="177" viewBox="0 0 318 177" fill="none" xmlns="http://www.w3.org/2000/svg">
<rect width="72.2087" height="75.7696" rx="30" transform="matrix(0.949623 -0.313395 0.299916 0.953966 73 22.6299)" fill="#1171F9"/>
<path d="M90.9554 42.4121C90.2206 39.892 91.6598 37.2263 94.1698 36.4581C96.6799 35.6898 99.3103 37.1099 100.045 39.63L107.256 64.3592C107.99 66.8793 106.551 69.545 104.041 70.3132C101.531 71.0815 98.9007 69.6614 98.1659 67.1413L90.9554 42.4121Z" fill="white"/>
<rect width="9.50593" height="29.3875" rx="4.75297" transform="matrix(0.956213 -0.292672 0.27992 0.960023 102.958 39.3269)" fill="white"/>
<rect width="9.50593" height="21.7015" rx="4.75297" transform="matrix(0.956213 -0.292672 0.27992 0.960023 116.966 43.0769)" fill="white"/>
<rect width="9.50593" height="23.9621" rx="4.75297" transform="matrix(0.956213 -0.292672 0.27992 0.960023 128.188 37.2776)" fill="white"/>
<rect width="9.6399" height="12.7346" rx="4.81995" transform="matrix(0.956213 -0.292672 0.27992 0.960023 142.954 44.4324)" fill="white"/>
<rect width="72.2049" height="75.7734" rx="30" transform="matrix(0.950767 0.309907 -0.296548 0.955018 154.35 4.25854)" fill="black"/>
<path d="M183.645 61.7593C175.455 59.8757 170.222 51.5061 172.13 42.9544C174.038 34.4027 182.313 29.14 190.503 31.0237C198.693 32.9073 203.926 41.2769 202.018 49.8286C200.11 58.3803 191.835 63.643 183.645 61.7593Z" stroke="white" stroke-width="6"/>
<rect x="0.705477" y="0.098598" width="4.90368" height="1.27659" transform="matrix(0.798001 -0.597121 0.612952 0.794317 167.166 59.7523)" fill="white" stroke="white"/>
<rect x="0.705477" y="0.098598" width="20.6286" height="4.3219" rx="2.16095" transform="matrix(0.798001 -0.597121 0.612952 0.794317 150.599 70.2216)" fill="white" stroke="white"/>
<path d="M1.28 117.28H6.08V110.368C6.08 104.096 9.6 101.792 13.44 101.792C14.464 101.792 15.68 101.856 16.576 101.984V104.544H13.952C10.112 104.544 9.024 106.464 9.024 110.368V117.28H16.256V119.84H9.024V148H6.08V119.84H1.28V117.28ZM19.4975 132.64C19.4975 123.36 25.9615 116.512 34.7295 116.512C43.4975 116.512 49.9615 123.36 49.9615 132.64C49.9615 141.92 43.4975 148.768 34.7295 148.768C25.9615 148.768 19.4975 141.92 19.4975 132.64ZM22.5055 132.64C22.5055 140.512 27.5615 146.08 34.7295 146.08C41.8975 146.08 46.9535 140.512 46.9535 132.64C46.9535 124.768 41.8975 119.2 34.7295 119.2C27.5615 119.2 22.5055 124.768 22.5055 132.64ZM55.06 132.768C55.06 123.04 60.82 116.512 69.652 116.512C76.244 116.512 81.172 120.416 82.58 126.24H79.572C78.292 121.696 74.196 119.136 69.652 119.136C62.804 119.136 57.94 124.384 57.94 132.704C57.94 140.64 62.42 146.08 69.268 146.08C74.196 146.08 78.292 143.264 79.7 139.104H82.708C81.044 144.928 75.796 148.768 69.268 148.768C60.82 148.768 55.06 142.368 55.06 132.768ZM87.4975 132.64C87.4975 123.36 93.9615 116.512 102.73 116.512C111.498 116.512 117.962 123.36 117.962 132.64C117.962 141.92 111.498 148.768 102.73 148.768C93.9615 148.768 87.4975 141.92 87.4975 132.64ZM90.5055 132.64C90.5055 140.512 95.5615 146.08 102.73 146.08C109.898 146.08 114.954 140.512 114.954 132.64C114.954 124.768 109.898 119.2 102.73 119.2C95.5615 119.2 90.5055 124.768 90.5055 132.64Z" fill="#1171F9"/>
<path d="M130.75 135.1C128.3 135.1 126.35 133.15 126.35 130.7C126.35 128.25 128.3 126.35 130.75 126.35C133.15 126.35 135.1 128.25 135.1 130.7C135.1 133.15 133.15 135.1 130.75 135.1ZM121.3 176.2L122.55 169.4C123.3 169.65 123.7 169.7 124.45 169.7C126.35 169.7 126.9 168.65 126.9 166.45V139H134.6V167.45C134.6 173.05 131.2 176.8 125.2 176.8C124.1 176.8 123.1 176.75 121.3 176.2ZM156.977 139H164.677V164H157.427L156.927 161.2C155.377 163.25 152.277 164.65 149.277 164.65C143.577 164.65 140.077 160.85 140.077 154.7V139H147.777V151.9C147.777 156 149.177 157.8 152.327 157.8C155.627 157.8 156.977 156.1 156.977 152V139ZM187.655 139V146.25H185.205C180.805 146.25 178.155 148.2 178.155 153.15V164H170.455V139.05H177.705L178.105 142.75C179.155 140.3 181.355 138.65 184.705 138.65C185.605 138.65 186.605 138.75 187.655 139ZM203.748 127.65L198.198 135.95H192.648L196.848 127.65H203.748ZM191.548 164V139H199.248V164H191.548ZM215.525 164.65C208.325 164.65 203.675 159.55 203.675 151.65C203.675 143.7 208.425 138.2 216.025 138.2C219.125 138.2 222.075 139.45 223.525 141.3V126.3H231.225V164H223.975L223.575 160.8C222.225 163.1 219.125 164.65 215.525 164.65ZM217.375 157.6C220.975 157.6 223.475 155.1 223.475 151.35C223.475 147.6 220.975 145.1 217.375 145.1C213.725 145.1 211.425 147.65 211.425 151.35C211.425 155.05 213.725 157.6 217.375 157.6ZM240.807 135.1C238.357 135.1 236.407 133.15 236.407 130.7C236.407 128.25 238.357 126.35 240.807 126.35C243.207 126.35 245.157 128.25 245.157 130.7C245.157 133.15 243.207 135.1 240.807 135.1ZM237.007 164V139H244.707V164H237.007ZM249.134 151.4C249.134 143.7 254.434 138.2 261.934 138.2C269.334 138.2 274.234 142.25 274.734 148.8H266.984C266.434 146.3 264.884 145.1 262.234 145.1C258.984 145.1 256.884 147.55 256.884 151.4C256.884 155.4 258.834 157.75 262.134 157.75C264.834 157.75 266.484 156.5 266.984 154.05H274.734C274.234 160.35 269.134 164.65 262.134 164.65C254.234 164.65 249.134 159.4 249.134 151.4ZM277.601 151.45C277.601 143.55 283.401 138.25 291.401 138.25C299.351 138.25 305.151 143.55 305.151 151.45C305.151 159.35 299.351 164.6 291.401 164.6C283.401 164.6 277.601 159.35 277.601 151.45ZM285.351 151.4C285.351 155.2 287.801 157.7 291.401 157.7C294.951 157.7 297.401 155.2 297.401 151.4C297.401 147.65 294.951 145.15 291.401 145.15C287.801 145.15 285.351 147.65 285.351 151.4Z" fill="black"/>
</svg>
